<?xml version="1.0" encoding="UTF-8" standalone="no"?>
<!-- Created with Inkscape (http://www.inkscape.org/) -->

<svg
   xmlns:dc="http://purl.org/dc/elements/1.1/"
   xmlns:cc="http://creativecommons.org/ns#"
   xmlns:rdf="http://www.w3.org/1999/02/22-rdf-syntax-ns#"
   xmlns:svg="http://www.w3.org/2000/svg"
   xmlns="http://www.w3.org/2000/svg"
   xmlns:sodipodi="http://sodipodi.sourceforge.net/DTD/sodipodi-0.dtd"
   xmlns:inkscape="http://www.inkscape.org/namespaces/inkscape"
   width="1000"
   height="1000"
   viewBox="0 0 264.58333 264.58334"
   version="1.1"
   id="svg8"
   inkscape:version="0.92.4 (5da689c313, 2019-01-14)"
   sodipodi:docname="knittings6.svg">
  <defs
     id="defs2">
    <inkscape:path-effect
       effect="spiro"
       id="path-effect893"
       is_visible="true" />
    <inkscape:path-effect
       effect="spiro"
       id="path-effect889"
       is_visible="true" />
    <inkscape:path-effect
       effect="spiro"
       id="path-effect885"
       is_visible="true" />
    <inkscape:path-effect
       effect="spiro"
       id="path-effect880"
       is_visible="true" />
    <inkscape:path-effect
       effect="spiro"
       id="path-effect876"
       is_visible="true" />
    <inkscape:path-effect
       effect="spiro"
       id="path-effect872"
       is_visible="true" />
    <inkscape:path-effect
       effect="spiro"
       id="path-effect868"
       is_visible="true" />
    <inkscape:path-effect
       effect="spiro"
       id="path-effect864"
       is_visible="true" />
    <inkscape:path-effect
       effect="spiro"
       id="path-effect860"
       is_visible="true" />
    <inkscape:path-effect
       effect="spiro"
       id="path-effect856"
       is_visible="true" />
    <inkscape:path-effect
       effect="spiro"
       id="path-effect852"
       is_visible="true" />
    <inkscape:path-effect
       effect="spiro"
       id="path-effect848"
       is_visible="true" />
    <inkscape:path-effect
       effect="spiro"
       id="path-effect844"
       is_visible="true" />
    <inkscape:path-effect
       effect="spiro"
       id="path-effect840"
       is_visible="true" />
    <inkscape:path-effect
       effect="spiro"
       id="path-effect836"
       is_visible="true" />
    <inkscape:path-effect
       effect="spiro"
       id="path-effect830"
       is_visible="true" />
    <inkscape:path-effect
       effect="spiro"
       id="path-effect911"
       is_visible="true" />
    <inkscape:path-effect
       effect="spiro"
       id="path-effect888"
       is_visible="true" />
    <inkscape:path-effect
       effect="spiro"
       id="path-effect884"
       is_visible="true" />
  </defs>
  <sodipodi:namedview
     id="base"
     pagecolor="#ffffff"
     bordercolor="#666666"
     borderopacity="1.0"
     inkscape:pageopacity="0.0"
     inkscape:pageshadow="2"
     inkscape:zoom="4"
     inkscape:cx="255.41961"
     inkscape:cy="206.94068"
     inkscape:document-units="px"
     inkscape:current-layer="layer2"
     showgrid="false"
     inkscape:window-width="2560"
     inkscape:window-height="1379"
     inkscape:window-x="0"
     inkscape:window-y="0"
     inkscape:window-maximized="1"
     units="px" />
  <metadata
     id="metadata5">
    <rdf:RDF>
      <cc:Work
         rdf:about="">
        <dc:format>image/svg+xml</dc:format>
        <dc:type
           rdf:resource="http://purl.org/dc/dcmitype/StillImage" />
        <dc:title></dc:title>
      </cc:Work>
    </rdf:RDF>
  </metadata>
  <g
     inkscape:groupmode="layer"
     id="layer2"
     inkscape:label="Lineart"
     style="display:inline;opacity:1"
     transform="translate(0,-32.41667)">
    <g
       id="g1046"
       transform="translate(443.06909,46.159731)">
      <path
         sodipodi:nodetypes="ccccc"
         inkscape:connector-curvature="0"
         id="path966"
         d="m -230.24685,53.900607 12.68906,-10.232227 3.3569,3.878883 -11.82074,9.490984 z"
         style="fill:#829bbc;fill-opacity:1;stroke:#6b819d;stroke-width:1;stroke-linecap:butt;stroke-linejoin:miter;stroke-miterlimit:4;stroke-dasharray:none;stroke-opacity:1" />
      <path
         sodipodi:nodetypes="ccccc"
         inkscape:connector-curvature="0"
         id="path969"
         d="m -276.88645,39.758852 10.64947,-17.991665 3.96875,2.711979 -8.59895,15.411978 z"
         style="fill:#829bbc;fill-opacity:1;stroke:#6b819d;stroke-width:1;stroke-linecap:butt;stroke-linejoin:miter;stroke-miterlimit:4;stroke-dasharray:none;stroke-opacity:1" />
      <path
         sodipodi:nodetypes="csscccssccccc"
         inkscape:connector-curvature="0"
         id="path956"
         d="m -338.66131,76.566486 c -4.92614,-2.308999 -17.78738,-6.179231 -25.83818,-8.572237 -10.46206,-3.109725 -21.13862,-6.28132 -31.65501,-8.106169 -4.75868,-0.825747 -9.7128,-1.558081 -9.7128,-1.558081 0,0 5.34338,-4.828886 9.29071,-7.562171 10.39241,-7.196147 22.15248,-10.85197 34.85542,-10.835428 7.42014,0.0097 12.7446,0.849866 22.07267,3.483084 7.86853,2.2212 11.68414,3.805133 16.29163,6.762982 2.43494,1.56315 6.26758,3.845343 6.26758,3.845343 0,0 -2.03667,2.297737 -4.68109,6.475097 -2.08514,3.293911 -5.39981,8.882841 -7.36589,12.419847 -1.9661,3.537007 -3.36482,6.092421 -3.36482,6.092421 0,0 -4.63212,-1.728439 -6.16022,-2.444688 z"
         style="opacity:1;fill:#f77194;fill-opacity:1;fill-rule:evenodd;stroke:none;stroke-width:0.51267022" />
      <path
         sodipodi:nodetypes="cccsccscc"
         inkscape:connector-curvature="0"
         id="path960"
         d="m -419.3047,154.92292 c -4.17871,-9.60574 -6.57743,-19.55889 -7.45816,-30.94661 -0.50059,-6.47285 0.24652,-16.08116 0.24652,-16.08116 0,0 6.00353,0.97581 12.72589,2.33595 7.96297,1.61116 16.87226,3.66372 17.12134,3.88175 0.0649,0.0568 -0.71684,1.46852 -2.30374,3.6498 -5.63022,9.71485 -11.18181,18.60138 -15.16229,30.31904 -1.63558,4.81479 -2.7439,8.03503 -3.43902,10.89662 z"
         style="opacity:1;fill:#f77194;fill-opacity:1;fill-rule:evenodd;stroke:none;stroke-width:0.50982445" />
      <path
         sodipodi:nodetypes="ccsscscsccc"
         transform="scale(0.26458333)"
         inkscape:connector-curvature="0"
         id="path962"
         d="m -1299.4497,859.05914 c -6.4645,-3.72631 -14.4711,-8.51877 -14.4711,-8.51877 14.1972,-71.74827 22.3701,-102.58218 31.5074,-135.4248 55.2806,-198.69704 133.0746,-402.68222 245.2322,-541.21635 6.4873,-8.01297 19.8722,-25.58027 19.8722,-25.58027 0,0 6.7221,-0.0714 17.98232,1.5616 7.71476,1.11885 16.45539,2.74465 16.45539,2.74465 0,0 -21.38451,29.53918 -26.88051,38.64315 -95.7692,158.64013 -169.7361,312.74062 -229.9254,507.85086 -17.1855,66.79495 -33.8205,114.56175 -46.0962,167.82815 z"
         style="opacity:1;fill:#c22f5c;fill-opacity:1;fill-rule:evenodd;stroke:none;stroke-width:1.88784575" />
      <path
         sodipodi:nodetypes="csscscsssccc"
         transform="scale(0.26458333)"
         inkscape:connector-curvature="0"
         id="path964"
         d="m -1156.1623,911.3862 c 0,0 10.0097,-60.57659 19.0568,-105.39695 44.0077,-218.01943 120.8583,-392.12357 222.07654,-519.34446 16.06601,-20.19332 59.09363,-73.33352 60.76228,-73.33352 0.64334,0 10.09251,7.92484 16.522,14.81271 l 12.2866,14.07021 -22.6399,22.28713 c -64.59985,63.59327 -103.1037,134.20125 -142.23358,209.59053 -55.11464,106.18617 -99.14764,270.94517 -119.41124,388.36589 -2.3254,13.47502 -5.6328,31.57221 -5.6328,31.57221 0,0 -4.892,3.06002 -12.8622,7.08336 -14.6938,7.41744 -27.9245,10.29289 -27.9245,10.29289 z"
         style="opacity:1;fill:#c22f5c;fill-opacity:1;fill-rule:evenodd;stroke:none;stroke-width:1.88784575" />
      <path
         sodipodi:nodetypes="cccccsscsc"
         transform="scale(0.26458333)"
         inkscape:connector-curvature="0"
         id="path968"
         d="m -865.26786,692.652 c 0,0 -52.88756,-75.93496 -78.72684,-108.04651 -21.13052,-26.17518 -44.25971,-50.55863 -65.6642,-71.82607 l 9.93852,-21.26587 9.23355,-17.62922 24.44433,25.98086 c 34.40238,36.56486 66.39459,66.01671 98.49712,109.47942 6.99542,9.4709 31.85983,45.7622 31.85983,45.7622 0,0 -6.715,8.99422 -13.21179,17.64882 -12.60221,16.78786 -14.62525,17.55948 -16.37052,19.89637 z"
         style="opacity:1;fill:#c22f5c;fill-opacity:1;fill-rule:evenodd;stroke:none;stroke-width:1.88784575" />
      <path
         sodipodi:nodetypes="sscccsscscs"
         inkscape:connector-curvature="0"
         id="path970"
         d="m -351.52733,83.722088 c -17.1124,-6.127298 -32.10594,-11.110104 -53.41987,-14.864722 -3.60303,-0.634702 -8.42149,-1.509275 -8.42149,-1.509275 0,0 2.91654,-4.325129 5.68694,-7.374745 0.75315,-0.829055 1.81445,-1.643347 1.81445,-1.643347 0,0 1.32403,0.118945 2.7978,0.337895 20.43905,3.036528 44.64349,9.716817 63.6933,17.579018 l 6.87511,2.764262 -2.57947,4.853659 c -1.3825,2.601377 -2.50968,5.137143 -2.51071,5.136511 0,0 -11.52538,-4.416082 -13.93606,-5.279256 z"
         style="opacity:1;fill:#e4486d;fill-opacity:1;fill-rule:evenodd;stroke:none;stroke-width:0.51217246" />
      <path
         sodipodi:nodetypes="cccccsscccc"
         transform="scale(0.26458333)"
         inkscape:connector-curvature="0"
         id="path972"
         d="m -1196.7386,909.34456 c -14.8626,-5.10321 -89.0348,-42.3972 -89.0348,-42.3972 0,-0.61285 27.8298,-116.26306 44.0363,-163.33866 46.7503,-164.30486 103.934,-305.48625 180.8248,-430.5316 26.6707,-47.47582 35.9576,-62.22912 78.04101,-120.4519 0,0 11.21747,2.39319 19.43537,4.4914 20.54305,5.24511 39.53891,12.2598 57.42559,21.2058 15.13901,7.57177 51.74365,34.98887 51.74365,34.98887 -171.53702,196.20447 -248.97322,417.46737 -279.91342,587.21805 -6.194,22.35177 -16.7515,87.01086 -21.9822,110.85688 0,0 -25.8967,2.9987 -40.5763,-2.04164 z"
         style="opacity:1;fill:#e4486d;fill-opacity:1;fill-rule:evenodd;stroke:none;stroke-width:1.88784575" />
      <path
         sodipodi:nodetypes="scccccsscscs"
         transform="scale(0.26458333)"
         inkscape:connector-curvature="0"
         id="path974"
         d="m -1000.62,770.29026 c -23.1799,-34.25659 -34.2215,-49.21904 -48.3248,-66.19222 l -19.6748,-23.63171 15.1193,-52.40627 c 11.1942,-32.63235 13.6181,-41.59611 24.4232,-69.00023 6.3262,-16.80168 12.8589,-32.04265 19.4182,-46.28041 6.7014,6.59317 27.58935,27.64546 34.82731,35.6934 20.77153,23.09603 38.32446,44.61281 64.8122,80.56597 23.27477,31.59203 45.01321,63.63502 44.75153,63.61321 0,0 -23.95585,30.37459 -46.20439,53.09913 -15.41325,15.74301 -68.23065,58.8214 -68.23065,58.8214 0,0 -13.49169,-23.30866 -20.9171,-34.28227 z"
         style="opacity:1;fill:#f8bac9;fill-opacity:1;fill-rule:evenodd;stroke:none;stroke-width:1.88784575" />
      <path
         sodipodi:nodetypes="scscccssccccs"
         inkscape:connector-curvature="0"
         id="path976"
         d="m -361.69402,125.65915 c -8.78573,-3.68716 -21.40766,-7.97659 -31.28252,-10.63103 -7.83828,-2.10698 -25.67331,-5.95429 -30.65881,-6.6136 -1.46304,-0.19348 -2.88099,-0.51937 -2.88099,-0.51937 0,0 1.25343,-11.573507 2.48188,-16.585428 2.48939,-10.15618 10.66577,-23.961631 10.66577,-23.961631 0,0 11.70817,1.914573 21.38606,4.094912 4.52331,1.01906 9.01441,2.175235 12.88264,3.179728 12.94176,3.360688 41.50872,14.378613 41.50872,14.378613 0,0 -2.39953,4.908157 -4.85537,10.627584 -2.45582,5.719432 -6.03161,14.565612 -7.9462,19.658192 -1.91461,5.09258 -3.70813,9.25276 -3.98561,9.24485 -0.27749,-0.008 -3.56949,-1.30068 -7.31557,-2.87282 z"
         style="opacity:1;fill:#f8bac9;fill-opacity:1;fill-rule:evenodd;stroke:none;stroke-width:0.51325762" />
      <path
         sodipodi:nodetypes="csscsscssscc"
         transform="scale(0.26458333)"
         inkscape:connector-curvature="0"
         id="path980"
         d="m -802.37713,481.69546 c -10.49482,-14.70073 -21.52389,-28.01124 -43.11841,-51.6228 -16.23001,-17.74598 -35.45955,-39.14664 -53.3145,-55.23151 -11.60167,-10.45152 -23.22451,-20.41478 -23.22451,-20.41478 -0.16745,-0.17785 11.59904,-18.45 25.89943,-36.26659 11.04814,-13.76467 23.25287,-28.32508 37.23974,-42.78948 11.87487,-12.28028 33.4373,-33.17611 33.4373,-33.17611 l 9.7083,12.76988 c 25.1098,33.02835 46.36451,98.60112 50.23312,150.43496 1.83243,24.55189 -0.65767,87.54526 -4.21358,106.59332 l -3.50205,15.52522 c -13.48026,-24.22249 -20.58203,-33.15517 -29.14484,-45.82211 z"
         style="opacity:1;fill:#f8bac9;fill-opacity:1;fill-rule:evenodd;stroke:none;stroke-width:1.88784575" />
      <path
         sodipodi:nodetypes="scccccssccs"
         transform="scale(0.26458333)"
         inkscape:connector-curvature="0"
         id="path982"
         d="m -1405.3455,787.6304 c -9.864,-8.09113 -18.9409,-17.25122 -18.9409,-17.25122 -0.5759,-0.34553 32.2573,-120.46724 41.8447,-151.72354 44.0486,-153.77586 105.6883,-298.30229 169.0779,-394.11073 6.662,-10.13618 13.9776,-20.22855 16.2568,-22.42748 10.0498,-9.69565 71.8053,-41.78819 71.8053,-41.78819 0,0 -5.2973,8.29011 -14.8819,22.99658 -25.7477,39.50673 -50.6708,80.20209 -81.1324,144.72481 -57.6325,122.07551 -101.6244,231.19239 -153.8858,431.24952 -5.8906,22.84293 -11.0221,43.34644 -11.1748,43.50177 -0.1526,0.15535 -9.1049,-7.08038 -18.9689,-15.17152 z"
         style="opacity:1;fill:#e86080;fill-opacity:1;fill-rule:evenodd;stroke:none;stroke-width:1.88784575" />
      <path
         sodipodi:nodetypes="ccccccsc"
         transform="scale(0.26458333)"
         inkscape:connector-curvature="0"
         id="path984"
         d="m -1115.3756,894.00995 c 0,0 10.8495,-61.93563 16.3406,-88.51519 5.608,-27.14505 7.9429,-37.0608 13.5745,-61.09245 5.9104,-25.72034 11.2086,-44.42722 16.8409,-63.93598 l 27.6057,32.86705 c 27.3755,33.19141 60.3152,88.92061 61.311,91.23915 0,0 -63.0896,46.22993 -89.6061,62.7604 -34.4444,21.47275 -46.0666,26.67702 -46.0666,26.67702 z"
         style="opacity:1;fill:#f77194;fill-opacity:1;fill-rule:evenodd;stroke:none;stroke-width:1.88784575" />
      <path
         sodipodi:nodetypes="sscscsscsscs"
         transform="scale(0.26458333)"
         inkscape:connector-curvature="0"
         id="path986"
         d="m -897.54042,573.07375 c -39.75251,-43.90491 -14.44508,-15.93985 -55.23229,-59.06117 -5.0837,-5.37463 -37.71412,-40.12825 -37.71412,-40.12825 0,0 15.3091,-30.16422 23.47453,-44.9722 14.82606,-26.88702 27.93953,-48.04057 27.93953,-48.04057 2.15106,0 48.39251,39.28511 69.10563,60.63063 36.6577,37.77691 45.86217,50.84271 67.27652,84.94706 6.73222,10.72168 19.42889,32.10419 19.42889,32.10419 l -7.65852,18.84584 c -7.17913,17.66618 -20.74559,40.79484 -34.7804,62.61763 l -9.9849,15.0899 c 0,0 -41.67244,-59.74245 -61.85487,-82.03306 z"
         style="opacity:1;fill:#f77194;fill-opacity:1;fill-rule:evenodd;stroke:none;stroke-width:1.88784575" />
      <path
         sodipodi:nodetypes="cccscccccc"
         transform="scale(0.26458333)"
         inkscape:connector-curvature="0"
         id="path988"
         d="m -1568.4308,620.26986 c -4.7523,-8.15603 -9.8023,-19.40695 -9.8023,-19.40695 -0.4639,-0.44443 13.3253,-45.87593 22.7188,-67.21994 5.9242,-15.17178 16.6319,-37.85605 27.7309,-57.24353 14.2305,-24.85736 28.567,-45.04731 28.567,-45.04731 11.7308,2.62906 22.9857,5.44851 33.149,8.70458 0,0 -7.4579,12.06952 -15.2022,23.11872 -38.3872,60.14004 -59.3528,100.68521 -71.5799,151.40541 -2.2713,9.50934 -6.1996,22.65005 -6.1996,22.65005 0,0 -4.6295,-8.80501 -9.3817,-16.96103 z"
         style="opacity:1;fill:#ae244e;fill-opacity:1;fill-rule:evenodd;stroke:none;stroke-width:1.88784575" />
      <path
         sodipodi:nodetypes="cccccscsccc"
         inkscape:connector-curvature="0"
         id="path992"
         d="m -398.49504,185.01892 c -5.81324,-5.24647 -10.0795,-9.81876 -14.00337,-16.41825 l 0.52515,-2.51535 c 3.1583,-12.7197 5.53674,-17.82766 11.46532,-29.5816 4.92693,-8.86004 12.44748,-20.02535 12.61095,-20.07205 l 10.27175,2.78331 c 9.19055,2.49034 20.06259,7.78456 20.06259,7.78456 0,0 -2.35468,3.53174 -5.14398,8.26593 -9.23281,15.67057 -17.65454,31.76738 -25.03068,49.89868 -1.50699,3.84609 -2.78414,7.04048 -2.83811,7.09864 -0.054,0.0582 -3.61779,-3.20158 -7.91962,-7.24387 z"
         style="opacity:1;fill:#e4486d;fill-opacity:1;fill-rule:evenodd;stroke:none;stroke-width:0.51111263" />
      <path
         inkscape:connector-curvature="0"
         id="path981"
         d="m -431.84741,220.66782 11.2721,-12.4414 35.9163,-29.43104 -3.89815,9.66247 -29.39894,24.02484 z"
         style="display:inline;opacity:1;fill:#829bbc;fill-opacity:1;stroke:#6b819d;stroke-width:1;stroke-linecap:butt;stroke-linejoin:miter;stroke-miterlimit:4;stroke-dasharray:none;stroke-opacity:1"
         sodipodi:nodetypes="cccccc" />
      <path
         sodipodi:nodetypes="ccccccccccc"
         id="path994"
         inkscape:connector-curvature="0"
         d="m -383.47423,198.25938 c -3.70557,-3.00073 -3.9916,-3.38733 -7.10778,-5.99164 l 2.73397,-6.80368 c 6.43614,-16.63576 13.33763,-30.23698 20.04473,-41.4534 4.16031,-8.60767 10.16133,-17.00583 10.24066,-17.01112 0,0 0.99235,0.37577 1.68486,0.67986 l 1.65536,0.67371 -1.59908,5.27163 c -5.0476,13.55805 -11.2018,33.67933 -18.07344,59.09151 -1.51376,5.59815 -2.94749,11.11324 -2.94749,11.11324 0,0 -3.47137,-2.86657 -6.63179,-5.57011 z"
         style="opacity:1;fill:#eb8099;fill-opacity:1;fill-rule:evenodd;stroke:none;stroke-width:0.50766623" />
      <path
         sodipodi:nodetypes="sscccssccs"
         transform="scale(0.26458333)"
         inkscape:connector-curvature="0"
         id="path1017"
         d="m -810.28761,514.91609 c -25.98755,-40.60422 -51.84809,-67.77682 -104.16192,-113.9692 -7.83258,-6.91605 -24.62324,-20.07533 -24.62324,-20.07533 0,0 6.14678,-10.8068 9.86037,-16.12848 5.51357,-7.90108 7.17785,-10.31671 7.17785,-10.31671 0.064,0 19.71313,16.69299 30.98009,27.58934 28.80309,27.85565 64.00829,66.36656 84.62956,94.25001 14.73081,19.91855 32.10967,47.68693 33.19261,51.25185 0,3.52372 -8.86351,31.05657 -10.02944,31.03587 -0.49012,-0.009 -23.14865,-37.57937 -27.02588,-43.63735 z"
         style="opacity:1;fill:#e4486d;fill-opacity:1;fill-rule:evenodd;stroke:none;stroke-width:1.33490849" />
      <path
         transform="scale(0.26458333)"
         inkscape:connector-curvature="0"
         id="path851"
         d="m -1304.7621,325.01695 c -31.6451,-12.08508 -86.2669,-31.03173 -109.1813,-37.87168 -36.4246,-10.87277 -88.1592,-22.69649 -132,-30.16805 -7.15,-1.21854 -13.5362,-2.49815 -14.1917,-2.84357 -1.4045,-0.74025 12.6583,-19.86623 20.6086,-28.02857 l 5.1674,-5.30518 5.7079,0.67332 c 37.6788,4.44473 103.4444,19.25315 155.7078,35.06069 33.7075,10.19512 81.1566,27.48176 110.7324,40.34197 l 4.7323,2.05774 -9.2323,18.02009 c -5.8801,11.47696 -9.7771,18.0025 -10.7324,17.97166 -0.825,-0.0266 -13.1184,-4.48542 -27.3187,-9.90842 z"
         style="opacity:1;fill:#c22f5c;fill-opacity:1;fill-rule:evenodd;stroke:none" />
      <circle
         r="14.244448"
         cy="11.081742"
         cx="-255.89052"
         id="path989"
         style="display:inline;opacity:1;fill:#dcd5c6;fill-opacity:1;fill-rule:evenodd;stroke:#baac95;stroke-width:2.90478992;stroke-miterlimit:4;stroke-dasharray:none;stroke-opacity:1" />
      <circle
         r="6.1739259"
         cy="6.5448413"
         cx="-257.34042"
         id="path991"
         style="display:inline;opacity:1;fill:#f6f1e7;fill-opacity:1;fill-rule:evenodd;stroke:none;stroke-width:5.35135126;stroke-miterlimit:4;stroke-dasharray:none;stroke-opacity:1" />
      <circle
         style="display:inline;opacity:1;fill:#dcd5c6;fill-opacity:1;fill-rule:evenodd;stroke:#baac95;stroke-width:2.90478992;stroke-miterlimit:4;stroke-dasharray:none;stroke-opacity:1"
         id="circle995"
         cx="-204.69363"
         cy="35.687992"
         r="14.244448" />
      <circle
         style="display:inline;opacity:1;fill:#f6f1e7;fill-opacity:1;fill-rule:evenodd;stroke:none;stroke-width:5.35135126;stroke-miterlimit:4;stroke-dasharray:none;stroke-opacity:1"
         id="circle997"
         cx="-206.14354"
         cy="31.151091"
         r="6.1739259" />
      <path
         inkscape:connector-curvature="0"
         id="path985"
         d="m -395.68437,243.35572 5.55625,-12.50156 32.87448,-53.71042 -4.63021,18.38854 -22.68802,38.03386 z"
         style="display:inline;opacity:1;fill:#829bbc;fill-opacity:1;stroke:#6b819d;stroke-width:1;stroke-linecap:butt;stroke-linejoin:miter;stroke-miterlimit:4;stroke-dasharray:none;stroke-opacity:1"
         sodipodi:nodetypes="cccccc" />
      <path
         sodipodi:nodetypes="sccssccsccssccs"
         transform="scale(0.26458333)"
         inkscape:connector-curvature="0"
         id="path978"
         d="m -1332.7663,839.22868 c -32.7434,-20.72286 -53.6368,-36.43754 -53.6368,-36.43754 0,0 9.7257,-37.82746 15.0612,-58.59376 31.5684,-130.564 61.0501,-213.42239 92.5929,-289.40443 35.6786,-85.94436 77.1077,-178.34482 126.7836,-253.906 l 26.6637,-40.55771 17.5254,-4.73394 c 8.1781,-2.15171 19.9664,-4.95829 26.1963,-6.23684 11.6742,-2.39588 64.271,-1.03951 64.271,-1.03951 0,0 -8.7992,11.26194 -18.5113,24.10615 -45.9091,64.95801 -82.7492,116.80177 -122.5096,204.58628 -54.7019,120.77293 -95.7473,231.55145 -126.7569,347.6697 -9.094,34.05325 -20.4278,95.47587 -24.643,110.51839 -1.5533,6.557 -4.191,15.3409 -4.191,15.3409 0,0 -9.5572,-5.43326 -18.8455,-11.31169 z"
         style="opacity:1;fill:#f8bac9;fill-opacity:1;fill-rule:evenodd;stroke:none;stroke-width:1.88784575" />
    </g>
  </g>
</svg>
