<?xml version="1.0" encoding="UTF-8" standalone="no"?>
<!-- Generator: Adobe Illustrator 12.0.0, SVG Export Plug-In . SVG Version: 6.00 Build 51448)  -->

<svg
   xmlns:dc="http://purl.org/dc/elements/1.1/"
   xmlns:cc="http://creativecommons.org/ns#"
   xmlns:rdf="http://www.w3.org/1999/02/22-rdf-syntax-ns#"
   xmlns:svg="http://www.w3.org/2000/svg"
   xmlns="http://www.w3.org/2000/svg"
   xmlns:sodipodi="http://sodipodi.sourceforge.net/DTD/sodipodi-0.dtd"
   xmlns:inkscape="http://www.inkscape.org/namespaces/inkscape"
   id="Layer_1"
   sodipodi:docname="knittings_icon.svg"
   xml:space="preserve"
   viewBox="0 0 328.12498 328.125"
   sodipodi:version="0.32"
   version="1.0"
   inkscape:version="0.92.3 (2405546, 2018-03-11)"
   width="350"
   height="350"
   enable-background="new"><sodipodi:namedview
     id="base"
     bordercolor="#666666"
     inkscape:pageshadow="2"
     inkscape:window-width="1920"
     pagecolor="#ffffff"
     inkscape:zoom="1.6015049"
     inkscape:window-x="0"
     borderopacity="1.0"
     inkscape:current-layer="Layer_1"
     inkscape:cx="90.338778"
     inkscape:cy="117.89506"
     inkscape:window-y="0"
     inkscape:window-height="1015"
     inkscape:pageopacity="0.0"
     showgrid="false"
     inkscape:window-maximized="1" /><defs
     id="defs5"><style
       type="text/css"
       id="style3"><![CDATA[
			.c1 { fill: #e51400 }
            .c2 { fill: #8B0000 }
		]]></style><filter
       style="color-interpolation-filters:sRGB;"
       inkscape:label="Drop Shadow"
       id="filter876"><feFlood
         flood-opacity="0.498039"
         flood-color="rgb(0,0,0)"
         result="flood"
         id="feFlood866" /><feComposite
         in="flood"
         in2="SourceGraphic"
         operator="in"
         result="composite1"
         id="feComposite868" /><feGaussianBlur
         in="composite1"
         stdDeviation="2"
         result="blur"
         id="feGaussianBlur870" /><feOffset
         dx="4"
         dy="4"
         result="offset"
         id="feOffset872" /><feComposite
         in="SourceGraphic"
         in2="offset"
         operator="over"
         result="composite2"
         id="feComposite874" /></filter></defs><rect
     style="fill:#ffb7bf;fill-opacity:1;stroke-width:0.93749994;filter:url(#filter876)"
     id="rect4532"
     width="328.98743"
     height="335.92218"
     x="0.58538693"
     y="-10.814019"
     ry="127.64285"
     transform="matrix(0.98635906,0,0,0.96334357,0.0957615,11.164107)"
     rx="121.66393" /><g
     id="g3"
     transform="matrix(1.0574851,0,0,1.0563985,28.190846,53.676752)"><path
       id="path5"
       d="m 264.02,18.327 c -16.047,-11.568 -41.9,-13.155 -54.826,3.716 -12.907,16.849 -5.959,38.873 -0.267,57.205 4.275,13.771 -0.098,28.556 -11.982,37.374 -7.806,5.792 -26.435,12.076 -33.657,1.725 12.419,-7.086 29.15,-12.417 33.24,-28.543 2.341,-9.231 -11.928,-34.896 -19.089,-21.051 20.227,-6.806 17.748,22.438 10.2,31.754 -8.853,10.921 -23.84,16.03 -36.096,17.215 -5.07,0.491 -16.534,-1.684 -13.231,-8.355 9.901,18.665 41.208,-3.021 47.87,-13.557 10.755,-17.011 -11.344,-29.709 -13.321,-16.115 4.182,-4.982 9.746,-5.688 13.559,0.06 5.668,8.546 -4.259,18.814 -10.05,23.905 -6.078,5.342 -14.476,10.037 -22.895,8.92 0.22,-7.524 1.989,-16.687 5.413,-24.5 4.376,-9.99 16.131,-13.423 19.502,-21.704 -18.282,6.555 -22.05,22.654 -27.411,39.366 -0.323,1.003 0.731,6.028 -0.12,6.6 -3.485,2.342 -10.189,-2.2 -11.715,-5.113 -1.262,-2.412 -0.621,-12.893 -1.664,-17.066 -1.697,-6.786 -2.463,-14.501 -7.284,-19.89 -7.245,-8.096 -5.098,-6.753 1.159,-15.372 2.878,-3.967 4.639,-8.586 7.432,-12.546 0.753,-1.067 2.024,-5.25 2.914,-5.769 2.836,-1.656 4.648,1.725 6.66,0.833 24.064,-10.671 -9.039,-35.101 -14.985,-18.732 -2.063,5.679 2.848,6.989 2.082,11.18 -0.871,4.76 -8.52,10.494 -11.566,14.034 -4.594,5.335 -11.276,20.31 -18.939,8.623 -3.029,-4.619 1.863,-12.984 3.508,-19.564 0.766,-3.067 1.081,-9.518 3.033,-12.011 1.949,-2.491 5.076,-0.777 7.016,-3.45 11.45,-15.771 -25.632,-27.573 -19.861,-4.816 0.408,1.61 3.693,2.532 4.281,4.46 0.569,1.871 -1.114,7.609 -1.605,9.99 -0.713,3.449 -2.36,13.028 -4.698,15.818 -2.546,3.039 0.758,4.887 -4.785,1.695 -4.224,-2.431 -10.254,-1.855 -14.898,-1.1 -8.457,1.375 -19.078,2.983 -26.758,7.611 -18.165,10.965 -31.719,32.342 -25.929,54.682 2.016,7.785 5.952,14.802 10.733,21.14 2.739,3.632 12.309,7.669 13.677,9.93 0.692,0.237 1.346,0.556 1.961,0.952 -15.663,22.49 -40.791,41.19 -50.603,66.9 13.454,-4.848 58.416,-71.549 71.12,-58.573 4.907,5.012 -2.486,35.448 -3.025,39.317 -2.236,16.079 -7.54,34.693 -6.834,50.475 0.043,0.996 3.981,-10.447 3.794,-9.336 1.884,-11.159 5.536,-22.225 7.702,-33.449 1.307,-6.771 2.855,-13.307 4.666,-20.247 1.34,-5.126 1.72,-18.673 5.353,-22.597 2.383,-2.571 15.483,-4.792 20.038,-6.064 12.374,-3.459 17.919,-9.207 27.028,-19.356 8.262,-9.207 3.612,-8.769 14.777,-5.679 7.568,2.095 7.058,2.938 13.26,6.185 12.89,6.742 29.238,8.124 42.221,0.772 22.835,-12.932 21.225,-45.787 14.183,-66.926 -5.413,-16.245 -4.89,-41.479 18.314,-42.339 6.051,-0.225 11.66,0.202 17.273,2.765 4.993,2.278 17.836,20.216 21.943,12.606 1.93,-3.541 -5.04,-12.326 -7.78,-13.969"
       inkscape:connector-curvature="0" /><path
       id="path7"
       d="m 162.87,89.089 c -1.325,2.101 -11.144,23.626 -4.639,23.489 1.318,-0.028 1.841,-12.457 3.152,-15.491 3.439,-7.958 11.052,-14.32 13.556,-22.388 -5.3,3.567 -8.62,9.377 -12.07,14.388"
       inkscape:connector-curvature="0" /><path
       id="path9"
       class="c1"
       d="m 180.95,72.795 c 16.755,4.573 6.919,22.532 -0.654,30.328 -7.623,7.846 -34.062,21.174 -41.982,6.243 -3.303,6.671 8.161,8.846 13.231,8.355 13.026,-1.26 28.633,-6.947 37.492,-18.939 4.958,-6.711 7.481,-15.569 3.33,-23.25 -3.789,-7.014 -15.858,-12.29 -17.425,-0.833 1.96,-1.157 4.13,-1.093 6.01,-1.903"
       inkscape:connector-curvature="0"
       style="fill:#e51400" /><path
       id="path11"
       class="c1"
       d="m 176.96,69.228 c -16.692,7.235 -23.024,27.466 -23.488,43.35 1.104,0.334 3.451,0.28 4.58,0.059 -12.63,-11.94 20.14,-35.657 18.91,-43.412"
       inkscape:connector-curvature="0"
       style="fill:#e51400" /><path
       id="path13"
       style="fill:#dedede"
       d="m 106.2,2.034 c 7.641,-0.294 20.196,11.83 6.66,9.573 -7.25,-1.209 -18.233,-12.246 -6.66,-9.573"
       inkscape:connector-curvature="0" /><path
       id="path15"
       style="fill:#a3a3a3"
       d="m 107.99,12.856 c 3.484,1.308 7.206,1.623 10.525,1.13 -4.614,8.5 -17.165,-0.479 -19.92,-5.769 2.67,2.329 5.89,3.918 9.39,4.639"
       inkscape:connector-curvature="0" /><path
       id="path17"
       class="c1"
       d="m 242.02,12.5 c 7.19,0.162 17.087,3.377 22.181,8.622 2.802,2.886 8.073,13.671 -0.179,10.228 -2.409,-1.004 -7.086,-9.786 -10.822,-12.011 -4.034,-2.404 -8.098,-3.567 -12.547,-4.223 -9.43,-1.389 -17.109,1.062 -24.023,7.731 -17.985,17.344 1.026,50.667 -0.416,72.546 -1.061,16.067 -13.586,34.375 -31.754,33.805 -9.011,-0.28 -23.675,-0.521 -29.138,-9.009 5.496,-2.424 15.038,5.354 22.002,5.056 17.687,-0.758 33.51,-14.28 35.796,-32.171 2.659,-20.784 -16.012,-40.899 -6.48,-62.497 6.15,-13.949 20.72,-21.349 35.38,-18.082"
       inkscape:connector-curvature="0"
       style="fill:#e51400" /><path
       id="path19"
       style="fill:#dedede"
       d="m 153.12,22.608 c 8.999,10.574 -5.559,7.549 -10.942,1.963 -11.5,-11.938 3.63,-12.26 10.94,-1.963"
       inkscape:connector-curvature="0" /><path
       id="path21"
       style="fill:#dedede"
       d="m 109.41,19.338 c -1.375,10.733 -5.152,21.01 -8.622,31.1 -6.878,-2.534 3.967,-25.961 4.281,-32.527 1.31,0.49 3.25,0.844 4.34,1.427"
       inkscape:connector-curvature="0" /><path
       id="path23"
       style="fill:#a3a3a3"
       d="m 135.4,21.181 c 4.933,5.032 9.991,10.983 17.364,11.952 -6.69,6.64 -20.86,-10.658 -17.36,-11.952"
       inkscape:connector-curvature="0" /><path
       id="path25"
       style="fill:#dedede"
       d="m 140.87,33.788 c -2.695,6.677 -22.605,41.336 -28.899,37.105 -6.66,-4.48 22.34,-41.113 28.9,-37.105"
       inkscape:connector-curvature="0" /><path
       id="path27"
       class="c1"
       d="M 91.338,47.523 C 82.484,44.967 71.973,48.583 63.805,50.437 50.443,53.471 39.81,62.672 34.133,74.876 25.982,92.392 29.914,111.89 39.722,128.87 25.944,112.558 19.772,86.189 33.478,67.385 43.118,54.162 75.958,37.92 91.338,47.523"
       inkscape:connector-curvature="0"
       style="fill:#e51400" /><path
       id="path29"
       class="c1"
       d="M 94.25,50.438 C 87.496,55.08 71.66,54.386 62.407,56.742 51.81,59.438 43.591,70.94 39.662,80.765 32.241,99.325 39.438,116.917 47.691,133.928 32.827,130.449 30.436,89.977 35.025,77.91 40.95,62.329 52.666,56.666 66.779,53.709 76.203,51.731 83.541,47.331 94.25,50.436"
       inkscape:connector-curvature="0"
       style="fill:#e51400" /><path
       id="path31"
       class="c1"
       d="m 97.879,54.065 c 5.267,-0.324 10.959,1.215 14.093,5.768 C 74.702,51.167 37.351,74.926 42.222,115.85 36.333,99.206 39.09,79.686 51.558,66.435 61.101,56.293 85.148,52.79 97.881,54.065"
       inkscape:connector-curvature="0"
       style="fill:#e51400" /><path
       id="path33"
       class="c1"
       d="m 97.522,60.547 c 4.205,-0.782 8.467,-0.011 12.309,1.843 C 86.356,58.318 64.823,70.365 53.37,90.22 46.041,102.921 49.833,116.636 51.617,129.942 44.013,122.847 42.356,104.579 45.194,94.56 51.869,70.991 74.569,60.1 97.523,60.549"
       inkscape:connector-curvature="0"
       style="fill:#e51400" /><path
       id="path35"
       class="c2"
       d="m 98.592,64.531 c 0.109,2.465 -0.725,5.159 -1.07,7.612 -2.085,-2.095 -3.259,-4.761 -3.983,-7.612 1.853,-0.787 3.36,-0.526 5.053,0"
       inkscape:connector-curvature="0"
       style="fill:#8b0000" /><path
       id="path37"
       class="c1"
       d="m 102.58,63.817 c 1.187,10.173 -0.76,21.668 -1.843,32.229 -0.821,8.009 -1.911,16.284 -4.756,23.904 -1.958,5.242 -10.957,25.225 -17.425,26.045 -6.823,0.866 0.83,-8.47 2.202,-10.524 4.307,-6.454 8.25,-11.772 11,-18.613 5.763,-14.329 4.626,-32.288 8.801,-47.75 0.64,-2.388 1.04,-4.129 2.02,-5.303"
       inkscape:connector-curvature="0"
       style="fill:#e51400" /><path
       id="path39"
       class="c2"
       d="m 107.99,64.888 c -2.363,17.723 -1.029,33.44 -5.352,51.853 -2.205,9.39 -9.601,16.562 -12.071,24.797 -3.043,10.145 6.046,-4.39 8.443,-7.255 -2.951,9.948 -6.5,13.746 -16.293,11.536 18.355,-24.622 22.776,-51.27 22.776,-81.645 0.83,0.131 1.68,0.597 2.49,0.713"
       inkscape:connector-curvature="0"
       style="fill:#8b0000" /><path
       id="path41"
       class="c2"
       d="m 91.041,65.245 c 1.556,5.55 7.358,9.443 5.054,15.223 C 92.372,78.019 84.341,67.432 91.041,65.245"
       inkscape:connector-curvature="0"
       style="fill:#8b0000" /><path
       id="path43"
       class="c2"
       d="M 85.926,67.028 C 84.982,74.885 100.06,84.329 95.024,90.992 90.115,97.49 71.708,67.504 85.926,67.028"
       inkscape:connector-curvature="0"
       style="fill:#8b0000" /><path
       id="path45"
       class="c2"
       d="m 115.18,99.912 c -1.999,9.377 -5.502,18.375 -7.195,27.83 2.672,-17.132 1.623,-47.021 13.736,-59.94 -1.82,10.721 -3.64,21.834 -6.54,32.112"
       inkscape:connector-curvature="0"
       style="fill:#8b0000" /><path
       id="path47"
       class="c1"
       d="m 127.85,72.499 c -5.913,22.389 -6.452,51.302 -22.002,69.693 2.251,-14.315 9.221,-29.848 12.666,-44.421 1.689,-7.144 1.408,-18.894 4.638,-24.976 1.99,-3.757 2.48,-6.301 4.69,-0.294"
       inkscape:connector-curvature="0"
       style="fill:#e51400" /><path
       id="path49"
       class="c2"
       d="m 78.314,69.584 c -1.612,8.02 4.586,18.965 11.12,23.489 5.124,3.548 6.546,7.809 -1.129,4.223 -5.856,-2.736 -22.1,-25.083 -9.991,-27.712"
       inkscape:connector-curvature="0"
       style="fill:#8b0000" /><path
       id="path51"
       class="c2"
       d="m 71.12,73.213 c 1.384,6.981 3.439,14.262 8.207,19.742 4.011,4.613 14.192,7.545 12.785,13.855 C 85.559,104.29 54.492,78.176 71.12,73.213"
       inkscape:connector-curvature="0"
       style="fill:#8b0000" /><path
       id="path53"
       class="c2"
       d="m 114.82,74.283 c -0.621,6.336 -2.527,12.537 -4.281,18.434 -0.38,-5.162 -0.19,-16.975 4.28,-18.434"
       inkscape:connector-curvature="0"
       style="fill:#8b0000" /><path
       id="path55"
       class="c1"
       d="m 133.26,83.321 c -8.647,16.376 -5.67,36.164 -19.505,50.962 5.021,-20.318 11.895,-39.353 15.937,-60 1.81,2.636 3.03,5.78 3.56,9.041"
       inkscape:connector-curvature="0"
       style="fill:#e51400" /><path
       id="path57"
       class="c2"
       d="m 64.994,80.051 c 0.191,13.52 29.613,27.522 24.619,35.44 -11.165,-1.213 -27.94,-16.263 -29.317,-28.186 -0.478,-4.141 1.077,-10.807 4.698,-7.253"
       inkscape:connector-curvature="0"
       style="fill:#8b0000" /><path
       id="path59"
       class="c2"
       d="m 71.833,109.31 c 5.18,4.095 9.875,8.178 16.65,8.742 -4.221,9.579 -42.351,-16.727 -31.04,-31.101 3.566,8.081 9.025,15.731 14.39,22.361"
       inkscape:connector-curvature="0"
       style="fill:#8b0000" /><path
       id="path61"
       class="c1"
       d="m 134.69,96.642 c -4.25,16.625 -7.633,28.187 -19.802,40.494 11.785,-13.11 18.104,-32.722 19.088,-50.187 1.83,3.145 2.12,6.686 0.71,9.689"
       inkscape:connector-curvature="0"
       style="fill:#e51400" /><path
       id="path63"
       class="c2"
       d="m 110.54,94.5 c -0.64,2.075 -0.51,1.657 0,0"
       inkscape:connector-curvature="0"
       style="fill:#8b0000" /><path
       id="path65"
       class="c2"
       d="m 59.227,106.45 c 7.44,7.553 15.422,14.928 26.045,17.363 -3.779,7.774 -40.553,-12.822 -31.813,-26.045 1.739,3.015 3.667,5.915 5.768,8.685"
       inkscape:connector-curvature="0"
       style="fill:#8b0000" /><path
       id="path67"
       class="c1"
       d="m 136.11,107.88 c -1.237,3.665 -2.368,8.216 -4.638,10.466 2.922,-6.495 4.954,-13.415 5.055,-20.575 1.23,3.355 1.1,6.985 -0.41,10.105"
       inkscape:connector-curvature="0"
       style="fill:#e51400" /><path
       id="path69"
       class="c2"
       d="m 108.34,105.74 c -1.648,11.717 -0.693,28.826 -9.751,37.581 4.571,-12.27 5.941,-25.59 9.751,-37.58"
       inkscape:connector-curvature="0"
       style="fill:#8b0000" /><path
       id="path71"
       class="c2"
       d="m 62.438,118.35 c 5.244,4.853 12.384,8.712 19.207,11.238 -5.262,7.832 -32.699,-10.208 -30.028,-20.218 3.055,3.59 6.709,7.01 10.821,8.98"
       inkscape:connector-curvature="0"
       style="fill:#8b0000" /><path
       id="path73"
       class="c2"
       d="m 57.8,123.76 c 5.885,4.06 13.455,9.917 20.217,10.88 -5.587,3.547 -25.161,-6.006 -24.915,-14.449 1.312,1.75 3.352,2.39 4.698,3.57"
       inkscape:connector-curvature="0"
       style="fill:#8b0000" /><path
       id="path75"
       class="c2"
       d="m 68.979,136.42 c 2.174,0.623 4.482,1.331 6.481,2.141 -6.17,-0.701 -21.063,-2.93 -20.933,-10.405 4.244,3.64 9.196,6.37 14.452,8.26"
       inkscape:connector-curvature="0"
       style="fill:#8b0000" /><path
       id="path77"
       class="c2"
       d="m 52.329,133.15 c 0.545,0.02 -1.319,-0.04 0,0"
       inkscape:connector-curvature="0"
       style="fill:#8b0000" /><path
       id="path79"
       class="c2"
       d="m 73.676,141.12 c -3.535,5.903 -19.634,1.01 -18.016,-6.124 5.446,3.65 11.965,3.98 18.016,6.12"
       inkscape:connector-curvature="0"
       style="fill:#8b0000" /><path
       id="path81"
       class="c2"
       d="m 114.11,138.21 c -1.391,1.429 -1.68,2.592 -3.568,3.269 1.16,-1.07 2.59,-2.23 3.57,-3.27"
       inkscape:connector-curvature="0"
       style="fill:#8b0000" /><path
       id="path83"
       style="fill:#dedede"
       d="m 58.098,144.33 c -16.316,18.75 -33.803,39.705 -53.4,54.945 2.992,-7.216 10.306,-14.838 15.58,-21.229 6.151,-7.46 29.862,-45.31 37.82,-33.72"
       inkscape:connector-curvature="0" /><path
       id="path85"
       style="fill:#dedede"
       d="m 81.229,148.67 c -4.938,19.726 -11.029,39.456 -13.677,59.645 1.281,-19.813 7.756,-41.315 6.124,-61.071 2.397,0.44 5.392,0.57 7.553,1.42"
       inkscape:connector-curvature="0" /></g><metadata
     id="metadata49"><rdf:RDF><cc:Work><dc:format>image/svg+xml</dc:format><dc:type
           rdf:resource="http://purl.org/dc/dcmitype/StillImage" /><cc:license
           rdf:resource="http://creativecommons.org/publicdomain/zero/1.0/" /><dc:publisher><cc:Agent
             rdf:about="http://openclipart.org/"><dc:title>Openclipart</dc:title></cc:Agent></dc:publisher><dc:title>Architetto -- lana</dc:title><dc:date>2010-03-10T19:56:33</dc:date><dc:description>Drawing by Francesco 'Architetto' Rollandin. From OCAL 0.18 release.</dc:description><dc:source>https://openclipart.org/detail/30895/architetto----lana-by-anonymous</dc:source><dc:creator><cc:Agent><dc:title>Anonymous</dc:title></cc:Agent></dc:creator><dc:subject><rdf:Bag><rdf:li>hobby</rdf:li><rdf:li>knitting</rdf:li><rdf:li>wool</rdf:li></rdf:Bag></dc:subject></cc:Work><cc:License
         rdf:about="http://creativecommons.org/publicdomain/zero/1.0/"><cc:permits
           rdf:resource="http://creativecommons.org/ns#Reproduction" /><cc:permits
           rdf:resource="http://creativecommons.org/ns#Distribution" /><cc:permits
           rdf:resource="http://creativecommons.org/ns#DerivativeWorks" /></cc:License></rdf:RDF></metadata></svg>